<mxfile host="app.diagrams.net" modified="2023-05-12T20:41:01.551Z" agent="Mozilla/5.0 (X11; Linux x86_64; rv:109.0) Gecko/20100101 Firefox/113.0" version="21.3.0" etag="jn-iZtRHhoRXAb_qWDSZ" type="github">
  <diagram name="PÃ¡gina-1" id="5ztMeNf6JHPhuRxROk2V">
    <mxGraphModel>
      <root>
        <mxCell id="0" />
        <mxCell id="1" parent="0" />
      </root>
    </mxGraphModel>
  </diagram>
</mxfile>
